<?xml version="1.0" encoding="UTF-8" standalone="no"?>
<svg
   xmlns:dc="http://purl.org/dc/elements/1.1/"
   xmlns:cc="http://creativecommons.org/ns#"
   xmlns:rdf="http://www.w3.org/1999/02/22-rdf-syntax-ns#"
   xmlns:svg="http://www.w3.org/2000/svg"
   xmlns="http://www.w3.org/2000/svg"
   xmlns:sodipodi="http://sodipodi.sourceforge.net/DTD/sodipodi-0.dtd"
   xmlns:inkscape="http://www.inkscape.org/namespaces/inkscape"
   width="321.83624mm"
   height="86.134033mm"
   viewBox="0 0 321.83624 86.134033"
   version="1.1"
   id="svg1604"
   inkscape:version="1.0.2-2 (e86c870879, 2021-01-15)"
   sodipodi:docname="zsl-logo-good-blue.svg">
  <defs
     id="defs1598" />
  <sodipodi:namedview
     id="base"
     pagecolor="#ffffff"
     bordercolor="#666666"
     borderopacity="1.0"
     inkscape:pageopacity="0.0"
     inkscape:pageshadow="2"
     inkscape:zoom="0.49497475"
     inkscape:cx="820.24059"
     inkscape:cy="205.60098"
     inkscape:document-units="mm"
     inkscape:current-layer="layer1"
     inkscape:document-rotation="0"
     showgrid="false"
     fit-margin-top="0"
     fit-margin-left="0"
     fit-margin-right="0"
     fit-margin-bottom="0"
     inkscape:window-width="1346"
     inkscape:window-height="1040"
     inkscape:window-x="78"
     inkscape:window-y="0"
     inkscape:window-maximized="0" />
  <metadata
     id="metadata1601">
    <rdf:RDF>
      <cc:Work
         rdf:about="">
        <dc:format>image/svg+xml</dc:format>
        <dc:type
           rdf:resource="http://purl.org/dc/dcmitype/StillImage" />
        <dc:title></dc:title>
      </cc:Work>
    </rdf:RDF>
  </metadata>
  <g
     inkscape:label="Layer 1"
     inkscape:groupmode="layer"
     id="layer1"
     transform="translate(77.007417,-64.278221)">
    <path
       id="path1560"
       style="fill:#ffffff;stroke-width:1"
       d="m 230.21315,121.64394 c -0.27461,-0.27322 -6.73254,-0.0604 -7.02294,0.23145 -0.14496,0.14569 -0.24322,0.48006 -0.21811,0.74307 0.0744,0.77875 -1.09874,2.83115 -2.31962,4.05821 -1.20594,1.21202 -2.47621,1.88121 -3.40951,1.79653 -0.31158,-0.0283 -0.70688,0.0899 -0.87886,0.26273 -0.41344,0.41552 -0.55662,6.57445 -0.1619,6.96327 0.16811,0.16727 0.95765,0.23611 1.75251,0.15454 5.40098,-0.55414 10.02527,-4.35297 11.65986,-9.57856 0.65645,-2.09862 0.93991,-4.2916 0.59857,-4.63124 z m 14.47349,21.49897 c -0.0832,-0.079 -6.74008,-0.15953 -14.79329,-0.17801 -16.5984,-0.0381 -16.81406,-0.0659 -18.88719,-2.44639 -0.63089,-0.72451 -1.29146,-1.77811 -1.47522,-2.35281 -0.18305,-0.57242 -0.41627,-7.72739 -0.51832,-15.9002 -0.10206,-8.17278 -0.3167,-14.93669 -0.47705,-15.03099 -0.50704,-0.29809 -6.64835,-0.0297 -6.84519,0.29969 -0.10351,0.17294 -0.12685,7.17381 -0.0522,15.55778 0.14785,16.60033 0.22429,17.28507 2.26772,20.32711 1.36629,2.03401 2.61039,3.27631 4.52782,4.52039 1.78882,1.16063 3.81592,1.89917 6.03991,2.20064 1.64198,0.22259 29.99369,0.24208 30.21386,0.0208 0.189,-0.18997 0.1882,-6.83797 -8.2e-4,-7.01803 z m -54.50921,-31.84415 c -2.63887,-2.61851 -5.40924,-3.80854 -9.59505,-4.12106 -3.2616,-0.24352 -16.11361,0.0348 -17.84667,0.38657 -4.70697,0.95545 -8.75647,4.59211 -10.31995,9.26788 -1.83599,5.49084 -0.69513,10.72967 3.18811,14.63903 3.47553,3.49884 6.24839,4.49721 12.70839,4.57691 2.48419,0.0307 4.59569,-0.0236 4.69227,-0.1207 0.0966,-0.097 0.19996,-1.63581 0.23,-3.41971 0.0301,-1.78389 0.12958,-3.31876 0.2209,-3.41056 0.0914,-0.0917 1.97636,-0.15786 4.18941,-0.1472 4.59139,0.0222 6.07734,0.42279 7.7,2.07735 0.5759,0.58718 1.22756,1.5635 1.49871,2.24495 0.6031,1.51566 0.51978,4.03233 -0.18611,5.62119 -0.72863,1.64013 -2.69015,3.2966 -4.45071,3.75811 -1.83328,0.48057 -16.85577,0.40203 -18.40953,-0.0965 -2.28293,-0.73207 -4.19405,-3.03875 -4.7787,-5.76727 l -0.1775,-0.82682 -3.43444,-0.13827 c -1.88909,-0.0761 -3.54564,-0.0274 -3.68086,0.10865 -0.55026,0.55303 0.50596,4.76593 1.74664,6.96613 1.04644,1.85583 4.89846,5.38134 6.746,6.17416 2.18049,0.93572 3.66387,1.1625 7.97446,1.21977 13.77333,0.18304 15.0279,0.0778 18.58223,-1.5537 4.71998,-2.16691 7.74615,-7.00311 7.9515,-12.70774 0.122,-3.38937 -1.15566,-6.69822 -3.70161,-9.58632 -3.23801,-3.67315 -5.68419,-4.61398 -12.59431,-4.84322 -2.65208,-0.0879 -4.95592,-0.0254 -5.11976,0.13932 -0.16384,0.16465 -0.2907,1.727 -0.28176,3.47172 0.009,1.74472 -0.0584,3.24722 -0.14947,3.33876 -0.091,0.0916 -1.91042,0.17284 -4.04278,0.18082 -4.67327,0.0174 -5.9081,-0.34939 -7.8563,-2.332 -1.52622,-1.55327 -2.06829,-2.78853 -2.07317,-4.72647 -0.005,-1.92269 0.60261,-3.30023 2.14114,-4.8562 2.11178,-2.13518 2.89503,-2.27755 12.4025,-2.25251 9.45276,0.0248 9.78711,0.0958 12.02585,2.5601 1.08366,1.19293 1.36187,1.67856 1.55066,2.70489 0.12654,0.68796 0.38327,1.40338 0.57037,1.58955 0.32833,0.32668 6.572,0.36392 6.89318,0.0409 0.28929,-0.29075 0.0563,-2.40676 -0.44351,-4.02497 -0.69394,-2.24685 -1.9363,-4.21662 -3.87013,-6.13605 z M 136.21507,64.578537 c -0.30519,-0.28985 -6.97398,-0.3211 -52.547619,-0.29129 -17.83689,0.0117 -32.87568,0.16675 -33.4194,0.34426 -0.54371,0.17751 -1.25755,0.47499 -1.58639,0.661 -0.76977,0.43533 -70.55856,35.593473 -77.81237,39.200243 l -5.49215,2.73064 -21.14758,0.0335 c -11.6313,0.0182 -21.17567,0.0609 -21.20918,0.0946 -0.24265,0.24388 5.00075,2.90662 40.66494,20.65072 22.03778,10.96448 40.5334204,20.14371 41.1013504,20.39817 0.56792,0.2545 1.65515,0.79661 2.41581,1.20455 1.36318,0.731 1.99432,0.74216 43.8334596,0.77251 23.34771,0.0169 42.5872,-0.0521 42.75426,-0.15325 0.16702,-0.10122 0.26168,-0.22587 0.21052,-0.27677 -0.11717,-0.11659 -19.92216,-10.01189 -56.1111,-28.03548 -15.5,-7.71966 -28.1818896,-14.12599 -28.1821496,-14.23594 -2.2e-4,-0.10995 9.2866396,-0.23227 20.6375996,-0.27189 11.35095,-0.0396 20.94946,-0.17416 21.33034,-0.29925 0.3809,-0.12507 8.33117,-4.05573 17.66746,-8.734603 9.33628,-4.67886 28.1942,-14.12499 41.905949,-20.99183 13.71184,-6.86683 24.96064,-12.61375 24.99728,-12.77073 0.002,-0.01 -9e-4,-0.0198 -0.0109,-0.0292 z m 7.96496,42.752873 c -0.1313,-0.13063 -1.68311,-0.20503 -3.44878,-0.16561 -1.76569,0.0394 -11.29982,0.0702 -21.18695,0.0687 -14.17787,-0.002 -18.00432,0.0946 -18.10779,0.45847 -0.0721,0.25374 -0.12003,1.89351 -0.1063,3.64411 l 0.0252,3.18301 4.34556,0.0468 c 2.38998,0.0256 10.34626,0.0548 17.68083,0.0644 7.3346,0.01 13.48926,0.11558 13.6771,0.23524 0.51459,0.32781 -0.46923,2.60063 -1.7856,4.1252 -1.98698,2.30127 -2.7117,2.54503 -7.50059,2.52485 -2.32983,-0.009 -4.38533,0.13238 -4.56792,0.31589 -0.18259,0.1835 -0.32472,1.67679 -0.31577,3.31834 0.009,1.64153 -0.10275,3.10421 -0.24833,3.25057 -0.14562,0.14634 -2.29641,0.29902 -4.77978,0.33908 -6.26723,0.10105 -8.87199,1.03185 -12.20428,4.36114 -1.79469,1.7925 -3.22811,4.44554 -3.7721,6.98113 -0.41778,1.9474 -0.5497,9.73278 -0.17117,10.10033 0.15645,0.15156 9.75523,0.25286 21.3313,0.2244 11.57606,-0.0284 21.1798,-0.18456 21.34119,-0.34676 0.16139,-0.1622 0.27337,-1.7992 0.24884,-3.6379 l -0.0446,-3.34301 -1.14164,-0.0504 c -0.62773,-0.0279 -8.57661,-0.0587 -17.6644,-0.0685 -9.08779,-0.01 -16.65769,-0.10235 -16.8221,-0.20577 -0.17462,-0.10983 -0.0356,-0.88696 0.33475,-1.86773 0.55792,-1.47753 0.80962,-1.83407 2.08962,-2.96542 1.81468,-1.60394 2.77505,-1.83879 7.60897,-1.86154 1.9284,-0.009 3.62996,-0.14104 3.78126,-0.2931 0.15127,-0.15202 0.30964,-1.66163 0.35184,-3.35458 0.0422,-1.69295 0.16915,-3.171 0.28224,-3.28465 0.11307,-0.11365 2.13211,-0.23508 4.48654,-0.27 6.0665,-0.09 8.49994,-0.89063 11.87435,-3.90502 3.55659,-3.17717 4.64817,-6.20239 4.64776,-12.88286 -1.4e-4,-2.47563 -0.10791,-4.60811 -0.23922,-4.73876 z" />
  </g>
</svg>